<svg xmlns="http://www.w3.org/2000/svg" viewBox="0 0 512 512"><defs><style>.cls-1{fill:transparent;}.cls-2{fill:#fddc02;}</style></defs><g id="Layer_2" data-name="Layer 2"><g id="Layer_1-2" data-name="Layer 1"><path class="cls-1" d="M512,512H0V0H512ZM264.43,368.26q66.61,0,133.23,0c30,0,50.42-20.44,50.45-50.44q0-53.4,0-106.8c0-30-20.37-50.41-50.43-50.41q-133.23,0-266.46,0c-30,0-50.43,20.44-50.45,50.43q0,53.15,0,106.3c0,30.7,20.23,50.91,50.94,50.93Z"/><path class="cls-2" d="M264.43,368.26H131.7c-30.71,0-50.92-20.23-50.94-50.93q0-53.15,0-106.3c0-30,20.45-50.43,50.45-50.43q133.23,0,266.46,0c30.06,0,50.4,20.36,50.43,50.41q0,53.4,0,106.8c0,30-20.45,50.42-50.45,50.44Q331,368.29,264.43,368.26Zm-40.28-48V256.68H176.9V272.6h31.38v31.21a4.57,4.57,0,0,1-1.11.46c-9.65,0-19.3.11-28.94.08-11.17,0-17.57-6.48-17.6-17.7q-.06-22.22,0-44.42c0-11.25,6.4-17.7,17.55-17.73,13.64,0,27.28,0,40.92,0h5.13V208.72c-17.37,0-34.51-.84-51.53.24-15.9,1-27.74,14.8-28,30.63-.24,16.63-.28,33.27,0,49.9.28,16.1,13.16,29.94,29.2,30.6C190.54,320.76,207.17,320.24,224.15,320.24Zm96.42-95.93H384V208.8H304.69V320H320.5V272.32h47.38v-16H320.57Zm-64.47.06v80.1H240.78V320h47.37V304.3H272.78V224.38h15.31V208.87H240.72v15.5Z"/><path d="M224.15,320.24c-17,0-33.61.52-50.2-.15-16-.66-28.92-14.5-29.2-30.6-.3-16.63-.26-33.27,0-49.9C145,223.76,156.8,210,172.7,209c17-1.08,34.16-.24,51.53-.24v15.77H219.1c-13.64,0-27.28,0-40.92,0-11.15,0-17.53,6.48-17.55,17.73q0,22.22,0,44.42c0,11.22,6.43,17.67,17.6,17.7,9.64,0,19.29,0,28.94-.08a4.57,4.57,0,0,0,1.11-.46V272.6H176.9V256.68h47.25Z"/><path d="M320.57,224.31v32h47.31v16H320.5V320H304.69V208.8H384v15.51Z"/><path d="M256.1,224.37H240.72v-15.5h47.37v15.51H272.78V304.3h15.37V320H240.78V304.47H256.1Z"/></g></g></svg>