<svg xmlns="http://www.w3.org/2000/svg" viewBox="0 0 358.69 296.87">
    <defs>
        <style>
            .cls-1 {
                fill: #fddc02;
            }
        </style>
    </defs>
    <g id="Layer_2" data-name="Layer 2">
        <g id="Layer_1-2" data-name="Layer 1">
            <g id="rYiIZt">
                <path class="cls-1"
                    d="M101,135.8c84-3.49,172.57.77,255.83-2.69-6.31-2.63-16.4-9.14-22.22-11.75C252,84.52,171.31,41.45,88.72,4.67A60.54,60.54,0,0,0,77.28.57c-14-3-23.62,6.36-20.94,20.45.74,3.94,2.4,7.74,3.85,11.53C73.7,67.63,89.38,101.87,101,135.8Zm257.73,10.44c-84,4-173.13,8.57-256.65,12.52C94.47,189,83.69,219.91,74.53,251.32c-2.11,7.28-4.64,14.46-6.39,21.83-1.68,7.06-1.73,14.37,4.35,19.57,6.5,5.55,14,4.92,21.45,1.72a63.93,63.93,0,0,0,5.78-2.93q120-66.62,239.92-133.25C344.63,155.49,355.47,152.07,358.69,146.24ZM68.38,105.18c-18.22,8.73-36.74,17.57-55.21,26.51a26.58,26.58,0,0,0-5.26,3.81c-10.58,8.91-10.55,21.84.09,30.68a41.83,41.83,0,0,0,12.7,7.1C35,178.44,49.12,183.89,63.4,189c3.17,1.14,6.17,3.43,8.82,2.83C88,162.28,86.25,133.86,68.38,105.18Z" />
            </g>
        </g>
    </g>
</svg>
